<svg width="29" height="28" viewBox="0 0 29 28" fill="none" xmlns="http://www.w3.org/2000/svg">
    <g style="mix-blend-mode:multiply">
    <rect x="0.166626" width="28" height="28" rx="14" fill="#E8E8E8"/>
    <g clip-path="url(#clip0_164_4362)">
    <path d="M19.1666 13H9.16663M9.16663 12.1L9.16663 15.9C9.16663 16.4601 9.16663 16.7401 9.27562 16.954C9.37149 17.1422 9.52447 17.2951 9.71264 17.391C9.92655 17.5 10.2066 17.5 10.7666 17.5L17.5666 17.5C18.1267 17.5 18.4067 17.5 18.6206 17.391C18.8088 17.2951 18.9618 17.1422 19.0576 16.954C19.1666 16.7401 19.1666 16.4601 19.1666 15.9V12.1C19.1666 11.5399 19.1666 11.2599 19.0576 11.046C18.9618 10.8578 18.8088 10.7049 18.6206 10.609C18.4067 10.5 18.1267 10.5 17.5666 10.5L10.7666 10.5C10.2066 10.5 9.92655 10.5 9.71264 10.609C9.52447 10.7049 9.37149 10.8578 9.27562 11.046C9.16663 11.2599 9.16663 11.5399 9.16663 12.1Z" stroke="#667085" stroke-width="1.5" stroke-linecap="round" stroke-linejoin="round"/>
    </g>
    </g>
    <defs>
    <clipPath id="clip0_164_4362">
    <rect width="12" height="12" fill="white" transform="translate(8.16663 8)"/>
    </clipPath>
    </defs>
</svg>
    