<svg width="29" height="28" viewBox="0 0 28 28" fill="none" xmlns="http://www.w3.org/2000/svg">
    <g style="mix-blend-mode:multiply">
    <rect x="0.333435" width="28" height="28" rx="14" fill="#E8E8E8"/>
    <path d="M16.5834 15H16.5884M9.83344 10.5V17.5C9.83344 18.0523 10.2812 18.5 10.8334 18.5H17.8334C18.3857 18.5 18.8334 18.0523 18.8334 17.5V12.5C18.8334 11.9477 18.3857 11.5 17.8334 11.5L10.8334 11.5C10.2812 11.5 9.83344 11.0523 9.83344 10.5ZM9.83344 10.5C9.83344 9.94772 10.2812 9.5 10.8334 9.5H16.8334M16.8334 15C16.8334 15.1381 16.7215 15.25 16.5834 15.25C16.4454 15.25 16.3334 15.1381 16.3334 15C16.3334 14.8619 16.4454 14.75 16.5834 14.75C16.7215 14.75 16.8334 14.8619 16.8334 15Z" stroke="#667085" stroke-width="1.5" stroke-linecap="round" stroke-linejoin="round"/>
    </g>
    </svg>
    