<svg width="29" height="28" viewBox="0 0 29 28" fill="none" xmlns="http://www.w3.org/2000/svg">
    <g style="mix-blend-mode:multiply">
    <rect x="0.5" width="28" height="28" rx="14" fill="#E8E8E8"/>
    <path d="M17.8182 11.6065C17.9351 10.8444 17.8182 10.3364 17.4091 9.86748C16.9611 9.33993 16.143 9.125 15.0911 9.125H12.0718C11.8575 9.125 11.6822 9.28131 11.6433 9.49624L10.3771 17.5073C10.3576 17.6636 10.4745 17.8004 10.6304 17.8004H12.5004L12.364 18.621C12.3445 18.7578 12.4419 18.875 12.5978 18.875H14.1756C14.3704 18.875 14.5262 18.7382 14.5457 18.5624L14.8768 16.4912C14.8963 16.3154 15.0716 16.1786 15.2469 16.1786H15.4807C17.0001 16.1786 18.2078 15.5534 18.5584 13.7558C18.6947 13.0133 18.6363 12.3685 18.2467 11.9386C18.1298 11.8019 17.9935 11.7042 17.8182 11.6065Z" fill="#009CDE"/>
    <path d="M17.8182 11.6065C17.9351 10.8444 17.8182 10.3364 17.4091 9.86748C16.9611 9.33993 16.143 9.125 15.0911 9.125H12.0718C11.8575 9.125 11.6822 9.28131 11.6433 9.49624L10.3771 17.5073C10.3576 17.6636 10.4745 17.8004 10.6304 17.8004H12.5004L12.9484 14.9086C12.9873 14.6936 13.1627 14.5373 13.3769 14.5373H14.273C16.0261 14.5373 17.3896 13.8339 17.7792 11.7628C17.7987 11.7237 17.7987 11.6651 17.8182 11.6065Z" fill="#012169"/>
    <path d="M13.4743 11.626C13.4938 11.4892 13.6691 11.3134 13.8444 11.3134H16.2209C16.4936 11.3134 16.7663 11.3329 17.0001 11.372C17.2143 11.4111 17.6039 11.5088 17.7987 11.626C17.9156 10.864 17.7987 10.356 17.3896 9.88702C16.9611 9.33993 16.143 9.125 15.0911 9.125H12.0718C11.8575 9.125 11.6822 9.28131 11.6433 9.49624L10.3771 17.5073C10.3576 17.6636 10.4745 17.8004 10.6304 17.8004H12.5004L13.4743 11.626Z" fill="#003087"/>
    </g>
    </svg>
    